<svg width="129" height="98" viewBox="0 0 129 98" fill="none" xmlns="http://www.w3.org/2000/svg">
<path d="M92.877 0C73.0312 0 56.8926 16.417 56.8926 36.6048C56.8926 61.9786 89.3741 95.3139 90.7536 96.7228C91.342 97.3137 92.1086 97.6131 92.877 97.6131C93.6453 97.6131 94.4119 97.3137 95.0003 96.7228C96.3798 95.3139 128.861 61.9786 128.861 36.6048C128.861 16.417 112.723 0 92.877 0Z" fill="#FFDD65"/>
<path d="M2.34116 35.3962L2.34098 35.3966C2.24195 35.7147 2.34384 36.0395 2.54753 36.225L2.5486 36.226L13.5723 46.2825L14.4529 47.0857L14.1988 48.2503L10.9485 63.1481C10.9485 63.1481 10.9484 63.1481 10.9484 63.1483C10.8766 63.4778 11.0086 63.784 11.2179 63.9421L11.2182 63.9422C11.4097 64.0868 11.6384 64.0924 11.8281 63.9738L11.8328 63.9707L24.409 56.1478L25.5008 55.4687L26.5925 56.1477L39.1727 63.9705L39.1757 63.9725C39.276 64.0352 39.371 64.058 39.4575 64.058C39.5584 64.058 39.6723 64.027 39.7881 63.9404C39.9942 63.7848 40.1274 63.4807 40.0551 63.1473C40.0551 63.1472 40.0551 63.147 40.055 63.1469L36.806 48.249L36.5519 47.0848L37.4323 46.2815L48.456 36.2231L48.4605 36.2191C48.6577 36.0401 48.7611 35.7168 48.6618 35.4C48.5647 35.0901 48.3317 34.9393 48.1283 34.9192C48.1279 34.919 48.1274 34.919 48.127 34.919L33.5435 33.5408L32.3003 33.4232L31.8259 32.2681L26.0607 18.2316C26.0604 18.231 26.0603 18.2304 26.06 18.2298C25.9365 17.9332 25.6972 17.8115 25.5009 17.8115C25.3028 17.8115 25.0636 17.9349 24.942 18.2275C24.9417 18.2281 24.9414 18.2287 24.9412 18.2293L19.1761 32.2689L18.7015 33.4242L17.4582 33.5417L2.87361 34.9194L2.8705 34.9197C2.66987 34.9382 2.43717 35.0875 2.34116 35.3962Z" fill="#ECECEC" stroke="#0A175C" stroke-width="2.7"/>
<path d="M68.1849 35.3962L68.1848 35.3966C68.0857 35.7147 68.1875 36.0395 68.3912 36.225L68.3922 36.226L79.416 46.2825L80.2965 47.0857L80.0425 48.2503L76.7922 63.1481C76.7922 63.1481 76.7922 63.1481 76.7921 63.1483C76.7203 63.4778 76.8523 63.784 77.0616 63.9421L77.0619 63.9422C77.2534 64.0868 77.4821 64.0924 77.6718 63.9738L77.6765 63.9707L90.2527 56.1478L91.3445 55.4687L92.4362 56.1477L105.016 63.9705L105.019 63.9725C105.12 64.0352 105.215 64.058 105.301 64.058C105.402 64.058 105.516 64.027 105.632 63.9401C105.838 63.7845 105.971 63.4805 105.899 63.1473C105.899 63.1472 105.899 63.147 105.899 63.1469L102.65 48.249L102.396 47.0848L103.276 46.2815L114.3 36.2231L114.304 36.2191C114.501 36.0401 114.605 35.7168 114.506 35.4C114.408 35.0901 114.175 34.9393 113.972 34.9192C113.972 34.919 113.971 34.919 113.971 34.919L99.3872 33.5408L98.144 33.4232L97.6696 32.2681L91.9044 18.2316C91.9041 18.231 91.904 18.2304 91.9037 18.2298C91.7803 17.9332 91.5409 17.8115 91.3446 17.8115C91.1465 17.8115 90.9073 17.9349 90.7857 18.2275C90.7854 18.2281 90.7851 18.2287 90.7849 18.2293L85.0198 32.2689L84.5453 33.4242L83.3019 33.5417L68.7173 34.9194L68.7143 34.9197C68.5135 34.9382 68.2809 35.0875 68.1849 35.3962Z" fill="#ECECEC" stroke="#0A175C" stroke-width="2.7"/>
<path d="M38.5176 44.2354H90.5801" stroke="#0A175C" stroke-width="2.7"/>
</svg>
