<svg width="105" height="95" viewBox="0 0 105 95" fill="none" xmlns="http://www.w3.org/2000/svg">
<path d="M48.0488 95C74.2651 95 95.5176 73.7475 95.5176 47.5312C95.5176 21.315 74.2651 0.0625 48.0488 0.0625C21.8326 0.0625 0.580078 21.315 0.580078 47.5312C0.580078 73.7475 21.8326 95 48.0488 95Z" fill="#FF5C5C"/>
<path fill-rule="evenodd" clip-rule="evenodd" d="M46.5176 27.3812C42.2892 27.3812 38.8613 30.8091 38.8613 35.0375V61.9218C38.8613 66.1503 42.2892 69.578 46.5176 69.578H47.5911V81.2191L61.9711 69.578H95.2279C99.4563 69.578 102.884 66.1503 102.884 61.9218V35.0375C102.884 30.8091 99.4563 27.3812 95.2279 27.3812H46.5176Z" fill="#ECECEC"/>
<path d="M47.5919 69.5781H49.6591V67.5109H47.5919V69.5781ZM47.5919 81.2191H45.5247V85.5521L48.8926 82.8258L47.5919 81.2191ZM61.9719 69.5781V67.5109H61.2401L60.6712 67.9715L61.9719 69.5781ZM40.9293 35.0375C40.9293 31.9508 43.4317 29.4485 46.5184 29.4485V25.3141C41.1483 25.3141 36.7949 29.6674 36.7949 35.0375H40.9293ZM40.9293 61.9218V35.0375H36.7949V61.9218H40.9293ZM46.5184 67.5109C43.4317 67.5109 40.9293 65.0087 40.9293 61.9218H36.7949C36.7949 67.2921 41.1483 71.6453 46.5184 71.6453V67.5109ZM47.5919 67.5109H46.5184V71.6453H47.5919V67.5109ZM49.6591 81.2191V69.5781H45.5247V81.2191H49.6591ZM60.6712 67.9715L46.2913 79.6124L48.8926 82.8258L63.2725 71.1848L60.6712 67.9715ZM95.2286 67.5109H61.9719V71.6453H95.2286V67.5109ZM100.818 61.9218C100.818 65.0087 98.3155 67.5109 95.2286 67.5109V71.6453C100.599 71.6453 104.952 67.2921 104.952 61.9218H100.818ZM100.818 35.0375V61.9218H104.952V35.0375H100.818ZM95.2286 29.4485C98.3155 29.4485 100.818 31.9508 100.818 35.0375H104.952C104.952 29.6674 100.599 25.3141 95.2286 25.3141V29.4485ZM46.5184 29.4485H95.2286V25.3141H46.5184V29.4485Z" fill="#0A175C"/>
<path d="M53.4111 43.3869H81.7849" stroke="#0A175C" stroke-width="2.7"/>
<path d="M53.4111 53.5723H89.7877" stroke="#0A175C" stroke-width="2.7"/>
</svg>
