<svg width="114" height="110" viewBox="0 0 114 110" fill="none" xmlns="http://www.w3.org/2000/svg">
<path d="M20.4242 0C16.5874 0.000716723 12.8605 1.27764 9.83337 3.62864C6.80625 5.97963 4.65186 9.27039 3.71124 12.98C5.39504 12.3993 7.19483 12.2341 8.95664 12.4984C10.7184 12.7627 12.3898 13.4488 13.8278 14.4978C15.2658 15.5468 16.4275 16.9276 17.2137 18.5221C17.9999 20.1166 18.3871 21.8773 18.3421 23.6535C18.2972 25.4297 17.8214 27.1687 16.9556 28.7216C16.0898 30.2745 14.8597 31.5951 13.3705 32.5705C11.8813 33.5459 10.1774 34.1469 8.40445 34.3223C6.63152 34.4977 4.84237 34.2421 3.19008 33.5775V81.8125C3.19008 86.3709 5.00581 90.7426 8.23782 93.9659C11.4698 97.1892 15.8534 99 20.4242 99H52.9455C49.2552 93.2549 47.2988 86.5728 47.3093 79.75C47.3093 73.238 49.0548 67.133 52.1073 61.875H34.2114C33.2973 61.875 32.4205 61.5128 31.7741 60.8682C31.1277 60.2235 30.7646 59.3492 30.7646 58.4375C30.7646 57.5258 31.1277 56.6515 31.7741 56.0068C32.4205 55.3622 33.2973 55 34.2114 55H57.2913C60.6327 51.5175 64.6476 48.7471 69.0934 46.8564C73.5391 44.9657 78.3231 43.994 83.1562 44C90.2621 44 96.8883 46.0625 102.458 49.621V17.1875C102.458 12.6291 100.643 8.25738 97.4106 5.0341C94.1786 1.81082 89.795 0 85.2243 0H20.4242ZM30.7646 39.1875C30.7646 37.29 32.3088 35.75 34.2114 35.75H71.437C71.8897 35.75 72.3379 35.8389 72.7561 36.0117C73.1742 36.1844 73.5542 36.4376 73.8743 36.7568C74.1944 37.076 74.4482 37.455 74.6215 37.872C74.7947 38.2891 74.8838 38.7361 74.8838 39.1875C74.8838 39.6389 74.7947 40.0859 74.6215 40.503C74.4482 40.92 74.1944 41.299 73.8743 41.6182C73.5542 41.9374 73.1742 42.1906 72.7561 42.3633C72.3379 42.5361 71.8897 42.625 71.437 42.625H34.2114C32.3088 42.625 30.7646 41.085 30.7646 39.1875ZM7.32626 16.5C6.42056 16.4986 5.52349 16.6754 4.68646 17.0204C3.84943 17.3654 3.08891 17.8717 2.44848 18.5104C1.80806 19.1491 1.30034 19.9076 0.954413 20.7423C0.608491 21.5771 0.431173 22.4718 0.432626 23.375C0.431173 24.2782 0.608491 25.1729 0.954413 26.0077C1.30034 26.8424 1.80806 27.6009 2.44848 28.2396C3.08891 28.8783 3.84943 29.3846 4.68646 29.7296C5.52349 30.0746 6.42056 30.2514 7.32626 30.25C9.15456 30.25 10.908 29.5257 12.2008 28.2364C13.4936 26.947 14.2199 25.1984 14.2199 23.375C14.2199 21.5516 13.4936 19.803 12.2008 18.5136C10.908 17.2243 9.15456 16.5 7.32626 16.5ZM113.488 79.75C113.488 96.4563 99.9077 110 83.1562 110C66.4047 110 52.8242 96.4563 52.8242 79.75C52.8242 63.0438 66.4047 49.5 83.1562 49.5C99.9077 49.5 113.488 63.0438 113.488 79.75ZM79.5908 64.0557C79.0737 63.5402 78.3725 63.2506 77.6413 63.2506C76.9101 63.2506 76.2089 63.5402 75.6918 64.0557L61.9045 77.8057C61.3876 78.3214 61.0972 79.0208 61.0972 79.75C61.0972 80.4792 61.3876 81.1786 61.9045 81.6943L75.6918 95.4443C76.2118 95.9452 76.9084 96.2224 77.6314 96.2161C78.3544 96.2098 79.046 95.9206 79.5572 95.4108C80.0685 94.9009 80.3585 94.2112 80.3648 93.4901C80.371 92.7691 80.0931 92.0744 79.5908 91.5557L70.5105 82.5H102.458C103.19 82.5 103.891 82.2103 104.408 81.6945C104.925 81.1788 105.216 80.4793 105.216 79.75C105.216 79.0207 104.925 78.3212 104.408 77.8055C103.891 77.2897 103.19 77 102.458 77H70.5105L79.5908 67.9443C80.1078 67.4286 80.3982 66.7292 80.3982 66C80.3982 65.2708 80.1078 64.5714 79.5908 64.0557Z" fill="black"/>
</svg>
