<svg width="111" height="110" viewBox="0 0 111 110" fill="none" xmlns="http://www.w3.org/2000/svg">
<path fill-rule="evenodd" clip-rule="evenodd" d="M0.709961 18.3333C0.709961 13.471 2.6415 8.80788 6.07967 5.36971C9.51784 1.93154 14.181 0 19.0433 0H92.3766C97.2389 0 101.902 1.93154 105.34 5.36971C108.778 8.80788 110.71 13.471 110.71 18.3333V91.6667C110.71 96.529 108.778 101.192 105.34 104.63C101.902 108.068 97.2389 110 92.3766 110H19.0433C14.181 110 9.51784 108.068 6.07967 104.63C2.6415 101.192 0.709961 96.529 0.709961 91.6667V18.3333ZM61.8211 30.5556C61.8211 28.9348 61.1772 27.3804 60.0312 26.2343C58.8851 25.0883 57.3307 24.4444 55.71 24.4444C54.0892 24.4444 52.5348 25.0883 51.3888 26.2343C50.2427 27.3804 49.5989 28.9348 49.5989 30.5556V79.4444C49.5989 81.0652 50.2427 82.6196 51.3888 83.7657C52.5348 84.9117 54.0892 85.5556 55.71 85.5556C57.3307 85.5556 58.8851 84.9117 60.0312 83.7657C61.1772 82.6196 61.8211 81.0652 61.8211 79.4444V30.5556ZM37.3766 48.8889C37.3766 47.2681 36.7328 45.7137 35.5867 44.5677C34.4407 43.4216 32.8863 42.7778 31.2655 42.7778C29.6447 42.7778 28.0904 43.4216 26.9443 44.5677C25.7983 45.7137 25.1544 47.2681 25.1544 48.8889V79.4444C25.1544 81.0652 25.7983 82.6196 26.9443 83.7657C28.0904 84.9117 29.6447 85.5556 31.2655 85.5556C32.8863 85.5556 34.4407 84.9117 35.5867 83.7657C36.7328 82.6196 37.3766 81.0652 37.3766 79.4444V48.8889ZM86.2655 67.2222C86.2655 65.6015 85.6217 64.0471 84.4756 62.901C83.3296 61.755 81.7752 61.1111 80.1544 61.1111C78.5336 61.1111 76.9793 61.755 75.8332 62.901C74.6871 64.0471 74.0433 65.6015 74.0433 67.2222V79.4444C74.0433 81.0652 74.6871 82.6196 75.8332 83.7657C76.9793 84.9117 78.5336 85.5556 80.1544 85.5556C81.7752 85.5556 83.3296 84.9117 84.4756 83.7657C85.6217 82.6196 86.2655 81.0652 86.2655 79.4444V67.2222Z" fill="black"/>
</svg>
