<svg width="99" height="98" viewBox="0 0 99 98" fill="none" xmlns="http://www.w3.org/2000/svg">
<path d="M62.252 0C42.4062 0 26.2676 16.4168 26.2676 36.6047C26.2676 61.9781 58.7491 95.3131 60.1286 96.722C60.717 97.3129 61.4836 97.6123 62.252 97.6123C63.0203 97.6123 63.7869 97.3129 64.3753 96.722C65.7548 95.3131 98.2363 61.9781 98.2363 36.6047C98.2363 16.4168 82.0977 0 62.252 0Z" fill="#FFDD65"/>
<path d="M64.0121 25.0359H2.30273V65.3078H64.0121V25.0359Z" fill="#ECECEC" stroke="#0A175C" stroke-width="2.7"/>
<path d="M3.29883 45.812L66.0801 45.9377" stroke="#0A175C" stroke-width="2"/>
<path d="M26.2676 38.4078L64.5488 38.5333" stroke="#0A175C" stroke-width="2"/>
<path d="M26.2676 32.2835L64.5488 32.4092" stroke="#0A175C" stroke-width="2"/>
<path d="M1.76758 52.1898L64.5488 52.3155" stroke="#0A175C" stroke-width="2"/>
<path d="M1.76758 58.3143L64.5488 58.4398" stroke="#0A175C" stroke-width="2"/>
</svg>
