<svg width="95" height="95" viewBox="0 0 95 95" fill="none" xmlns="http://www.w3.org/2000/svg">
<path d="M47.4688 94.9375C73.685 94.9375 94.9375 73.685 94.9375 47.4688C94.9375 21.2525 73.685 0 47.4688 0C21.2525 0 0 21.2525 0 47.4688C0 73.685 21.2525 94.9375 47.4688 94.9375Z" fill="#FF5C5C"/>
<path d="M79.0883 26.5672H15.8477V69.9016H79.0883V26.5672Z" fill="#ECECEC" stroke="#0A175C" stroke-width="2.7"/>
<path d="M86.7445 69.4422H8.19141V76.0266H86.7445V69.4422Z" fill="#ECECEC" stroke="#0A175C" stroke-width="2.7"/>
<path d="M46.6553 40.4077L48.231 42.266L49.8079 40.4086C50.6739 39.3887 51.8349 38.8172 53.065 38.8172C55.3911 38.8172 57.6508 40.9954 57.6508 44.1708C57.6508 44.9897 57.2078 46.2012 56.1955 47.7432C55.2208 49.2276 53.886 50.7689 52.4974 52.1898C51.1171 53.6022 49.7296 54.8489 48.6833 55.7452C48.5248 55.8808 48.3746 56.0082 48.2337 56.1266C48.0927 56.0082 47.9425 55.8808 47.784 55.745C46.7377 54.8486 45.3502 53.6017 43.9698 52.1891C42.5811 50.7681 41.2463 49.2268 40.2717 47.7424C39.2592 46.2004 38.8164 44.9892 38.8164 44.1708C38.8164 40.9946 41.0752 38.8172 43.4007 38.8172C44.6309 38.8172 45.7912 39.3887 46.6553 40.4077Z" stroke="#0A175C" stroke-width="2.7"/>
</svg>
