<svg width="107" height="98" viewBox="0 0 107 98" fill="none" xmlns="http://www.w3.org/2000/svg">
<path d="M75.914 0C67.1559 0 59.2635 3.94882 53.6823 10.2773C48.1082 3.94882 40.2158 0 31.4577 0C14.5567 0 0.861328 14.7095 0.861328 32.8622C0.861328 58.2803 53.6895 97.6123 53.6895 97.6123C53.6895 97.6123 106.518 58.2878 106.518 32.8622C106.518 14.7095 92.815 0 75.914 0Z" fill="#89E0D1"/>
<path d="M72.6506 52.025C72.5301 57.5053 70.0867 62.4056 66.2955 65.7237C75.183 65.9643 82.342 73.4741 82.342 82.6696V90.8835H26.8926V82.6696C26.8926 73.4741 34.0516 65.9643 42.9392 65.7252C39.1478 62.4056 36.7045 57.5053 36.584 52.0265H35.9049C27.4265 51.6677 27.4209 39.24 35.9049 38.8783H36.5797V35.941C33.9755 34.0326 32.2731 30.902 32.2731 27.3699V15.3125H36.5797C36.5797 17.7524 38.5105 19.7375 40.8848 19.7375H62.4252C68.0654 19.7375 72.6549 24.4564 72.6549 30.2555V38.8768H73.3297C81.808 39.2355 81.8138 51.6633 73.3297 52.025H72.6506Z" fill="#ECECEC"/>
<path d="M66.2955 65.7237C70.0867 62.4056 72.5301 57.5053 72.6506 52.025H73.3297C81.8138 51.6633 81.808 39.2355 73.3297 38.8768H72.6549V30.2555C72.6549 24.4564 68.0654 19.7375 62.4252 19.7375H40.8848C38.5105 19.7375 36.5797 17.7524 36.5797 15.3125H32.2731V27.3699C32.2731 30.902 33.9755 34.0326 36.5797 35.941V38.8783H35.9049C27.4209 39.24 27.4265 51.6677 35.9049 52.0265H36.584C36.7045 57.5053 39.1478 62.4056 42.9392 65.7252C34.0516 65.9643 26.8926 73.4741 26.8926 82.6696V90.8835H82.342V82.6696C82.342 73.4741 75.183 65.9643 66.2955 65.7237ZM49.5929 70.1458H59.6417V73.1495C59.6417 75.5819 57.7166 77.5627 55.3495 77.5627H53.8838C51.518 77.5627 49.5915 75.5834 49.5915 73.1495L49.5929 70.1458ZM73.3297 43.3048C76.1002 43.4229 76.0975 47.4804 73.3297 47.5971H72.6549V43.3048H73.3297ZM36.5797 22.9789C37.8473 23.7345 39.3173 24.1656 40.8835 24.1656H62.4239C65.6897 24.1656 68.3469 26.8976 68.3469 30.2555V33.4584H42.5028C39.2369 33.4584 36.5797 30.7264 36.5797 27.3685V22.9789ZM33.8177 45.4509C33.8177 44.2672 34.7537 43.3048 35.9049 43.3048H36.5797V47.5971H35.9049C34.7551 47.5971 33.8177 46.6347 33.8177 45.4509ZM40.8864 51.6014V37.7565C41.4131 37.8421 41.9529 37.8879 42.5028 37.8879H68.3469V51.6014C67.5918 70.3348 41.6371 70.32 40.8864 51.6014ZM78.0354 86.4556H31.1992V82.6696C31.1992 75.7635 36.6629 70.1458 43.3799 70.1458H45.2863V73.1495C45.2863 78.0247 49.1436 81.9906 53.8838 81.9906H55.3495C60.091 81.9906 63.947 78.0247 63.947 73.1495V70.1458H65.8534C72.5702 70.1458 78.0339 75.7635 78.0339 82.6696L78.0354 86.4556Z" fill="#0A175C"/>
<path d="M60.0254 42.6403H64.332V47.0673H60.0254V42.6403Z" fill="#0A175C"/>
<path d="M44.9043 42.6403H49.2109V47.0673H44.9043V42.6403Z" fill="#0A175C"/>
<path d="M54.6177 61.1382C58.2984 61.1382 61.2929 58.0602 61.2929 54.2771H56.9863C56.8556 57.507 52.3783 57.5054 52.249 54.2771H47.9424C47.9424 58.0602 50.9369 61.1382 54.6177 61.1382Z" fill="#0A175C"/>
</svg>
