<svg width="104" height="98" viewBox="0 0 104 98" fill="none" xmlns="http://www.w3.org/2000/svg">
<path d="M0.76873 36.8857C1.40115 34.8226 3.13227 33.3577 5.18241 33.1643L33.0257 30.4953L44.0352 3.28493C44.8471 1.29165 46.6972 0 48.751 0C50.8051 0 52.6531 1.29165 53.4668 3.28891L64.4765 30.4933L92.3235 33.1643C94.3699 33.3636 96.0971 34.8246 96.7334 36.8857C97.3696 38.9467 96.7825 41.2111 95.2344 42.6363L74.1892 62.1247L80.3925 90.9915C80.8476 93.1142 80.066 95.3068 78.3989 96.5805C77.5022 97.2642 76.4546 97.6131 75.3955 97.6131C74.4837 97.6131 73.5795 97.354 72.7676 96.8396L48.751 81.6827L24.742 96.8396C22.9844 97.9559 20.77 97.8542 19.1068 96.5805C17.438 95.3029 16.6583 93.1083 17.1133 90.9915L23.3185 62.1266L2.27331 42.6423C0.725312 41.2111 0.134428 38.9527 0.76873 36.8857Z" fill="#89E0D1"/>
<path d="M91.2472 64.3705C93.1982 65.0643 95.2667 65.4245 97.3397 65.4245H103.82V60.9949C101.84 60.9949 100.23 59.3388 100.23 57.3035V33.0617C100.135 22.0772 86.3591 17.9253 80.4819 27.0351H56.7883C52.4744 27.0351 48.9659 30.644 48.9659 35.0779V40.9066C48.9659 45.4365 52.0336 49.2445 56.1465 50.2467V58.3175C56.1465 63.9661 58.6157 69.0347 62.5017 72.4399H59.8042C52.4443 72.4384 46.4551 78.5963 46.4551 86.1637V97.613H101.925V86.1637C101.925 78.5963 95.9371 72.4384 88.5756 72.4384H85.8782C88.3072 70.3099 90.1821 67.5336 91.2472 64.3705Z" fill="#ECECEC"/>
<path d="M79.5986 49.3537H83.9068V53.781H79.5986V49.3537Z" fill="#0A175C"/>
<path d="M64.4727 49.3537H68.7807V53.781H64.4727V49.3537Z" fill="#0A175C"/>
<path d="M91.2472 64.3705C93.1982 65.0643 95.2667 65.4245 97.3397 65.4245H103.82V60.9949C101.84 60.9949 100.23 59.3388 100.23 57.3035V33.0617C100.135 22.0772 86.3591 17.9253 80.4819 27.0351H56.7883C52.4744 27.0351 48.9659 30.644 48.9659 35.0779V40.9066C48.9659 45.4365 52.0336 49.2445 56.1465 50.2467V58.3175C56.1465 63.9661 58.6157 69.0347 62.5017 72.4399H59.8042C52.4443 72.4384 46.4551 78.5963 46.4551 86.1637V97.613H101.925V86.1637C101.925 78.5963 95.9371 72.4384 88.5756 72.4384H85.8782C88.3072 70.3099 90.1821 67.5336 91.2472 64.3705ZM95.9213 33.0617V57.3035C95.9213 58.6274 96.2314 59.879 96.7798 60.9846C95.1791 60.9226 93.6317 60.5935 92.1588 60.0015C92.2076 59.4466 92.2319 58.8842 92.2319 58.3175V35.0779C92.2319 31.3332 89.7297 28.1776 86.3549 27.2861C90.5611 24.8078 95.9659 28.0698 95.9213 33.0617ZM53.2739 40.9066V35.0779C53.2739 33.0852 54.8502 31.4646 56.7883 31.4646H84.4111C89.0751 31.6638 89.0708 38.4948 84.4111 38.6911H56.1465V45.5752C54.4497 44.7442 53.2739 42.9641 53.2739 40.9066ZM81.6103 76.8678C81.0031 79.287 79.4139 81.3446 77.1658 82.5002L74.19 84.0308L71.214 82.5002C68.966 81.3446 67.3753 79.287 66.7696 76.8678H81.6103ZM97.6167 86.1637V93.1836H50.7631V86.1637C50.7631 81.0376 54.8186 76.8678 59.8042 76.8678H62.3681C63.0385 80.9873 65.5637 84.5475 69.2875 86.4619L74.19 88.9829L79.0923 86.4619C82.8177 84.5475 85.3413 80.9873 86.0117 76.8678H88.5756C93.5612 76.8678 97.6167 81.0391 97.6167 86.1637ZM60.4545 58.3159V43.1206H84.4111C85.6744 43.1206 86.8687 42.8107 87.9253 42.2629V58.3175C87.1687 77.0568 61.2039 77.0421 60.4545 58.3159Z" fill="#0A175C"/>
<path d="M74.19 63.4297C72.8835 63.4297 71.8199 62.3378 71.8199 60.9935H67.5117C67.8792 70.1008 80.5021 70.0948 80.8667 60.9935H76.5585C76.56 62.3378 75.4963 63.4297 74.19 63.4297Z" fill="#0A175C"/>
</svg>
