<svg width="110" height="110" viewBox="0 0 110 110" fill="none" xmlns="http://www.w3.org/2000/svg">
<path fill-rule="evenodd" clip-rule="evenodd" d="M47.0661 27.7811C49.7535 28.2878 52.2729 29.4543 54.3978 31.1757C56.5228 32.8972 58.1867 35.1196 59.2401 37.6433C60.2935 40.167 60.7034 42.9129 60.4329 45.6342C60.1623 48.3555 59.2199 50.967 57.6903 53.2339L99.9608 86.0444C101.338 85.3312 102.915 85.1043 104.437 85.4005C105.959 85.6967 107.336 86.4986 108.345 87.6761C109.353 88.8536 109.934 90.3375 109.993 91.8868C110.053 93.4362 109.586 94.96 108.67 96.2109C107.754 97.4618 106.442 98.3663 104.947 98.7776C103.452 99.1888 101.862 99.0827 100.435 98.4764C99.008 97.8701 97.8278 96.7992 97.0861 95.4377C96.3444 94.0761 96.0847 92.5038 96.3492 90.9761L53.3575 57.6033C51.333 58.9907 49.0246 59.9089 46.6003 60.2912C44.176 60.6735 41.697 60.5101 39.3438 59.813C36.9907 59.116 34.8227 57.9028 32.9977 56.2618C31.1728 54.6208 29.7369 52.5933 28.7947 50.3272C27.8525 48.061 27.4277 45.6132 27.5512 43.1621C27.6747 40.711 28.3435 38.3183 29.5087 36.1584C30.674 33.9984 32.3064 32.1256 34.2871 30.6764C36.2677 29.2272 38.5468 28.2381 40.9581 27.7811L40.9519 0H47.0631V27.7811H47.0661ZM49.5075 44C49.5075 44.7223 49.3652 45.4375 49.0888 46.1048C48.8124 46.772 48.4073 47.3784 47.8966 47.8891C47.3859 48.3998 46.7796 48.8049 46.1123 49.0813C45.445 49.3577 44.7298 49.5 44.0075 49.5C43.2852 49.5 42.57 49.3577 41.9027 49.0813C41.2355 48.8049 40.6291 48.3998 40.1184 47.8891C39.6077 47.3784 39.2026 46.772 38.9262 46.1048C38.6498 45.4375 38.5075 44.7223 38.5075 44C38.5075 42.5413 39.087 41.1424 40.1184 40.1109C41.1499 39.0795 42.5488 38.5 44.0075 38.5C45.4662 38.5 46.8651 39.0795 47.8966 40.1109C48.928 41.1424 49.5075 42.5413 49.5075 44Z" fill="black"/>
<path d="M66.0794 43.951C66.0804 39.7244 64.864 35.5869 62.5757 32.0334C60.2874 28.4798 57.0241 25.6605 53.1758 23.9126V0.32373C66.2811 1.47567 73.0889 5.60373 79.1847 11.2535C79.4903 11.5407 79.7958 11.8187 80.0892 12.0876V12.0907C82.6864 14.474 84.7519 16.3715 85.8183 19.2132L98.7556 53.6554C99.1023 54.5798 99.2197 55.5745 99.0979 56.5543C98.976 57.5341 98.6185 58.4697 98.0558 59.281C97.4932 60.0924 96.7423 60.7552 95.8675 61.2128C94.9926 61.6704 94.0198 61.9091 93.0325 61.9085H88.0489V69.0554L64.9031 51.0796C65.6866 48.7857 66.0851 46.378 66.0825 43.954L66.0794 43.951ZM34.8425 23.9737V0.736231C7.37306 4.8704 0 25.364 0 36.5901C0 54.2115 11.2536 67.879 16.5306 73.3576V110H68.8172V90.1021H81.9347C82.8575 90.1021 83.7375 89.8943 84.5197 89.5276L52.1767 64.4109C46.831 66.6169 40.8317 66.6294 35.4769 64.4457C30.1221 62.2619 25.8424 58.0576 23.564 52.7424C21.2855 47.4272 21.1915 41.4286 23.3022 36.0446C25.413 30.6606 29.5588 26.3242 34.8425 23.9737Z" fill="black"/>
</svg>
