<svg width="237" height="65" viewBox="0 0 237 65" fill="none" xmlns="http://www.w3.org/2000/svg">
<path d="M5.71889 64.6158C8.45195 64.6158 10.6005 62.7832 11.106 60.0501H8.68893C8.29397 61.4403 7.17231 62.325 5.71889 62.325C3.83893 62.325 2.4329 60.84 2.4329 58.8495C2.4329 56.8589 3.83893 55.3581 5.71889 55.3581C7.10912 55.3581 8.21498 56.1796 8.67313 57.475H11.0586C10.5531 54.8526 8.40456 53.0674 5.71889 53.0674C2.4645 53.0674 0 55.5635 0 58.8495C0 62.1197 2.4645 64.6158 5.71889 64.6158Z" fill="#FFE074"/>
<path d="M18.0806 64.6158C21.4456 64.6158 23.9575 62.1355 23.9575 58.8337C23.9575 55.5477 21.4456 53.0674 18.0806 53.0674C14.6998 53.0674 12.1721 55.5635 12.1721 58.8337C12.1721 62.1197 14.6998 64.6158 18.0806 64.6158ZM18.0806 62.3566C16.1059 62.3566 14.605 60.8242 14.605 58.8337C14.605 56.8431 16.1059 55.3265 18.0806 55.3265C20.0554 55.3265 21.5246 56.8273 21.5246 58.8337C21.5246 60.84 20.0554 62.3566 18.0806 62.3566Z" fill="#FFE074"/>
<path d="M32.8398 53.3044V60.0501L27.9898 53.3044H25.8413V64.363H28.1794V57.4592L33.1874 64.363H35.1937V53.3044H32.8398Z" fill="#FFE074"/>
<path d="M45.3353 53.3044H36.7886V55.5319H39.8692V64.363H42.2547V55.5319H45.3353V53.3044Z" fill="#FFE074"/>
<path d="M53.2123 64.363H55.8189L51.3481 53.3044H49.089L44.7445 64.363H47.288L48.0463 62.2776H52.4382L53.2123 64.363ZM50.2422 56.227L51.6957 60.1923H48.7888L50.2422 56.227Z" fill="#FFE074"/>
<path d="M61.8297 64.6158C64.5628 64.6158 66.7113 62.7832 67.2169 60.0501H64.7998C64.4048 61.4403 63.2831 62.325 61.8297 62.325C59.9498 62.325 58.5437 60.84 58.5437 58.8495C58.5437 56.8589 59.9498 55.3581 61.8297 55.3581C63.22 55.3581 64.3258 56.1796 64.784 57.475H67.1695C66.6639 54.8526 64.5154 53.0674 61.8297 53.0674C58.5753 53.0674 56.1108 55.5635 56.1108 58.8495C56.1108 62.1197 58.5753 64.6158 61.8297 64.6158Z" fill="#FFE074"/>
<path d="M76.376 53.3044H67.8293V55.5319H70.9099V64.363H73.2954V55.5319H76.376V53.3044Z" fill="#FFE074"/>
<path d="M86.3599 64.6158C89.093 64.6158 91.2415 62.7832 91.747 60.0501H89.3299C88.935 61.4403 87.8133 62.325 86.3599 62.325C84.4799 62.325 83.0739 60.84 83.0739 58.8495C83.0739 56.8589 84.4799 55.3581 86.3599 55.3581C87.7501 55.3581 88.856 56.1796 89.3141 57.475H91.6996C91.1941 54.8526 89.0456 53.0674 86.3599 53.0674C83.1055 53.0674 80.641 55.5635 80.641 58.8495C80.641 62.1197 83.1055 64.6158 86.3599 64.6158Z" fill="#FFE074"/>
<path d="M95.8622 62.1513V59.8763H99.7011V57.712H95.8622V55.5161H100.112V53.3044H93.4767V64.363H100.286V62.1513H95.8622Z" fill="#FFE074"/>
<path d="M109.3 53.3044V60.0501L104.45 53.3044H102.301V64.363H104.639V57.4592L109.647 64.363H111.654V53.3044H109.3Z" fill="#FFE074"/>
<path d="M121.795 53.3044H113.249V55.5319H116.329V64.363H118.715V55.5319H121.795V53.3044Z" fill="#FFE074"/>
<path d="M125.792 62.1513V59.8763H129.631V57.712H125.792V55.5161H130.042V53.3044H123.407V64.363H130.216V62.1513H125.792Z" fill="#FFE074"/>
<path d="M138.314 64.363H140.983L138.535 60.1923C139.767 59.592 140.557 58.4229 140.557 56.9695C140.557 54.8368 138.898 53.3044 136.686 53.3044H132.231V64.363H134.617V60.6031H136.149L138.314 64.363ZM134.617 55.5161H136.528C137.539 55.5161 138.124 56.1322 138.124 56.9537C138.124 57.791 137.539 58.3913 136.528 58.3913H134.617V55.5161Z" fill="#FFE074"/>
<path d="M150.121 64.5842C152.412 64.5842 154.307 63.4309 154.307 61.0454C154.307 58.5651 152.19 58.0438 150.516 57.6172C149.331 57.3329 148.383 57.0959 148.383 56.3218C148.383 55.5951 149.157 55.2633 149.931 55.2633C150.832 55.2633 151.622 55.7057 151.622 56.6693H153.976C153.976 54.4576 152.538 53.099 149.994 53.099C147.546 53.099 145.982 54.2996 145.982 56.4166C145.982 58.8021 148.004 59.2918 149.678 59.7026C150.879 59.9711 151.89 60.2081 151.89 61.077C151.89 61.8985 151.005 62.3724 150.105 62.3724C149.126 62.3724 148.241 61.8511 148.241 60.7926H145.824C145.824 63.1623 147.577 64.5842 150.121 64.5842Z" fill="#FFE074"/>
<path d="M161.482 64.6158C164.847 64.6158 167.359 62.1355 167.359 58.8337C167.359 55.5477 164.847 53.0674 161.482 53.0674C158.101 53.0674 155.573 55.5635 155.573 58.8337C155.573 62.1197 158.101 64.6158 161.482 64.6158ZM161.482 62.3566C159.507 62.3566 158.006 60.8242 158.006 58.8337C158.006 56.8431 159.507 55.3265 161.482 55.3265C163.457 55.3265 164.926 56.8273 164.926 58.8337C164.926 60.84 163.457 62.3566 161.482 62.3566Z" fill="#FFE074"/>
<path d="M171.628 62.1513V53.3044H169.243V64.363H175.878V62.1513H171.628Z" fill="#FFE074"/>
<path d="M181.658 64.6158C184.265 64.6158 186.224 62.799 186.224 60.2081V53.3044H183.823V60.0975C183.823 61.4719 182.922 62.3566 181.658 62.3566C180.379 62.3566 179.478 61.4719 179.478 60.0975V53.3044H177.077V60.2081C177.077 62.799 179.036 64.6158 181.658 64.6158Z" fill="#FFE074"/>
<path d="M196.25 53.3044H187.703V55.5319H190.784V64.363H193.169V55.5319H196.25V53.3044Z" fill="#FFE074"/>
<path d="M197.861 64.363H200.247V53.3044H197.861V64.363Z" fill="#FFE074"/>
<path d="M208.027 64.6158C211.392 64.6158 213.904 62.1355 213.904 58.8337C213.904 55.5477 211.392 53.0674 208.027 53.0674C204.647 53.0674 202.119 55.5635 202.119 58.8337C202.119 62.1197 204.647 64.6158 208.027 64.6158ZM208.027 62.3566C206.053 62.3566 204.552 60.8242 204.552 58.8337C204.552 56.8431 206.053 55.3265 208.027 55.3265C210.002 55.3265 211.471 56.8273 211.471 58.8337C211.471 60.84 210.002 62.3566 208.027 62.3566Z" fill="#FFE074"/>
<path d="M222.787 53.3044V60.0501L217.937 53.3044H215.788V64.363H218.126V57.4592L223.134 64.363H225.141V53.3044H222.787Z" fill="#FFE074"/>
<path d="M231.333 64.5842C233.623 64.5842 235.519 63.4309 235.519 61.0454C235.519 58.5651 233.402 58.0438 231.728 57.6172C230.543 57.3329 229.595 57.0959 229.595 56.3218C229.595 55.5951 230.369 55.2633 231.143 55.2633C232.044 55.2633 232.833 55.7057 232.833 56.6693H235.187C235.187 54.4576 233.75 53.099 231.206 53.099C228.758 53.099 227.194 54.2996 227.194 56.4166C227.194 58.8021 229.216 59.2918 230.89 59.7026C232.091 59.9711 233.102 60.2081 233.102 61.077C233.102 61.8985 232.217 62.3724 231.317 62.3724C230.337 62.3724 229.453 61.8511 229.453 60.7926H227.036C227.036 63.1623 228.789 64.5842 231.333 64.5842Z" fill="#FFE074"/>
<path d="M1.14746 22.3779H21.3884V28.9188H1.14746V22.3779Z" fill="#5CA7FF"/>
<path d="M36.5979 1.78613V35.3382H56.3814V42.4847H29.3936V1.78613H36.5979Z" fill="#5CA7FF"/>
<path d="M98.3491 22.3774C98.2347 32.9154 92.1739 43.4535 78.68 43.4535C65.186 43.4535 58.8965 33.0366 58.8965 22.3774C58.8965 9.53798 67.7018 0.937988 78.7943 0.937988C91.9452 1.05911 98.4634 11.7183 98.3491 22.3774ZM78.68 36.307C87.714 36.307 91.1447 29.0394 91.259 22.3774C91.3734 15.5943 87.714 7.96334 78.9087 7.84221C70.6751 7.84221 65.8722 14.3831 66.1009 22.3774C66.2152 29.1605 69.6459 36.307 78.68 36.307Z" fill="#5CA7FF"/>
<path d="M104.067 22.3779H124.308V28.9188H104.067V22.3779Z" fill="#5CA7FF"/>
<path d="M160.101 11.7184C157.471 9.05361 153.697 7.60009 150.381 7.60009C142.147 7.60009 137.115 14.2621 137.115 22.6198C137.115 29.2818 140.775 36.186 150.381 36.186C153.354 36.186 155.984 35.4592 159.072 32.9156V25.648H149.237V18.7437H165.704V35.9437C161.931 40.5465 157.128 43.2113 150.381 43.2113C135.972 43.2113 130.025 33.1578 130.025 22.4987C130.025 10.9916 136.772 0.453613 150.381 0.453613C155.527 0.453613 160.673 2.51277 164.675 6.63107L160.101 11.7184Z" fill="#5CA7FF"/>
<path d="M210.188 22.3779C210.074 32.9159 204.013 43.4539 190.519 43.4539C177.025 43.4539 170.735 33.1581 170.735 22.499C170.735 9.65957 179.541 1.05957 190.633 1.05957C203.784 1.05957 210.302 11.7187 210.188 22.3779ZM190.519 36.3074C199.553 36.3074 202.984 29.0398 203.098 22.3779C203.212 15.5948 199.553 7.96379 190.748 7.84266C182.514 7.84266 177.711 14.3835 177.94 22.3779C178.054 29.161 181.485 36.3074 190.519 36.3074Z" fill="#5CA7FF"/>
<path d="M215.906 22.3779H236.147V28.9188H215.906V22.3779Z" fill="#5CA7FF"/>
</svg>
