<?xml version="1.0" encoding="utf-8"?><svg viewBox="0 0 512 512" xmlns="http://www.w3.org/2000/svg" xmlns:xlink="http://www.w3.org/1999/xlink"><style>:root>svg{display:none}:root>svg:target{display:block}</style><svg viewBox="0 0 95 95" id="ben-1" xmlns="http://www.w3.org/2000/svg"><path d="M47.469 94.938c26.216 0 47.468-21.253 47.468-47.47C94.938 21.253 73.686 0 47.47 0 21.253 0 0 21.253 0 47.469s21.253 47.468 47.469 47.468z"/><path d="M79.088 26.567h-63.24v43.335h63.24V26.567z"/><path d="M86.745 69.442H8.19v6.585h78.553v-6.585zM46.655 40.408l1.576 1.858 1.577-1.857c.866-1.02 2.027-1.592 3.257-1.592 2.326 0 4.586 2.178 4.586 5.354 0 .819-.443 2.03-1.456 3.572-.974 1.485-2.309 3.026-3.698 4.447a60.093 60.093 0 01-4.263 3.937 60.114 60.114 0 01-4.264-3.938c-1.389-1.42-2.724-2.962-3.698-4.447-1.013-1.542-1.456-2.753-1.456-3.571 0-3.176 2.26-5.354 4.585-5.354 1.23 0 2.39.572 3.254 1.59z"/></svg><svg viewBox="0 0 105 95" id="ben-2" xmlns="http://www.w3.org/2000/svg"><path d="M48.049 95c26.216 0 47.469-21.252 47.469-47.469 0-26.216-21.253-47.468-47.47-47.468C21.834.063.58 21.314.58 47.53.58 73.748 21.833 95 48.05 95z"/><path fill-rule="evenodd" clip-rule="evenodd" d="M46.518 27.381a7.656 7.656 0 00-7.657 7.657v26.884a7.656 7.656 0 007.657 7.656h1.073v11.641l14.38-11.641h33.257a7.656 7.656 0 007.656-7.656V35.038a7.656 7.656 0 00-7.656-7.657h-48.71z"/><path d="M47.592 69.578h2.067v-2.067h-2.067v2.067zm0 11.641h-2.067v4.333l3.368-2.726-1.301-1.607zm14.38-11.64V67.51h-.732l-.569.46 1.3 1.607zM40.929 35.037a5.59 5.59 0 015.59-5.59v-4.134c-5.37 0-9.724 4.353-9.724 9.724h4.134zm0 26.884V35.038h-4.134v26.884h4.134zm5.59 5.589a5.59 5.59 0 01-5.59-5.59h-4.134c0 5.371 4.353 9.724 9.723 9.724V67.51zm1.073 0h-1.074v4.134h1.074V67.51zm2.067 13.708V69.58h-4.134v11.64h4.134zm11.012-13.247l-14.38 11.64 2.602 3.214 14.38-11.641-2.602-3.213zm34.558-.461H61.972v4.134h33.257V67.51zm5.589-5.59a5.59 5.59 0 01-5.59 5.59v4.134c5.371 0 9.724-4.353 9.724-9.723h-4.134zm0-26.883v26.884h4.134V35.038h-4.134zm-5.59-5.59a5.59 5.59 0 015.59 5.59h4.134c0-5.37-4.353-9.724-9.723-9.724v4.134zm-48.71 0h48.71v-4.134h-48.71v4.134zM53.411 43.387h28.374M53.411 53.572h36.377"/></svg><svg viewBox="0 0 99 98" id="ben-3" xmlns="http://www.w3.org/2000/svg"><path d="M62.252 0C42.406 0 26.268 16.417 26.268 36.605c0 25.373 32.481 58.708 33.86 60.117a2.99 2.99 0 002.124.89c.768 0 1.535-.3 2.123-.89 1.38-1.409 33.861-34.744 33.861-60.117C98.236 16.417 82.098 0 62.252 0z"/><path d="M64.012 25.036H2.302v40.272h61.71V25.036zM3.299 45.812l62.781.126m-39.812-7.53l38.28.125m-38.28-6.25l38.28.126M1.768 52.19l62.78.126m-62.78 5.998l62.78.126"/></svg><svg viewBox="0 0 129 98" id="ben-4" xmlns="http://www.w3.org/2000/svg"><path d="M92.877 0C73.031 0 56.893 16.417 56.893 36.605c0 25.374 32.481 58.709 33.86 60.118a2.99 2.99 0 002.124.89c.768 0 1.535-.3 2.123-.89 1.38-1.41 33.861-34.744 33.861-60.118C128.861 16.417 112.723 0 92.877 0z"/><path d="M2.341 35.396a.805.805 0 00.207.829v.001l11.024 10.056.88.804-.253 1.164-3.25 14.898c-.072.33.06.636.269.794.192.145.42.15.61.032l.005-.003 12.576-7.823 1.092-.68 1.091.68 12.58 7.822.004.002a.52.52 0 00.282.086c.1 0 .214-.031.33-.118a.785.785 0 00.267-.793l-3.249-14.898-.254-1.164.88-.803 11.024-10.059.005-.004a.797.797 0 00.2-.819c-.096-.31-.33-.46-.533-.48l-.001-.001-14.584-1.378-1.243-.118-.474-1.155-5.765-14.036-.001-.002c-.123-.297-.363-.419-.56-.419-.197 0-.436.124-.558.416v.002l-5.766 14.04-.474 1.155-1.244.118-14.584 1.377H2.87c-.2.02-.433.169-.529.477zm65.844 0c-.1.319.002.643.206.829l.001.001 11.024 10.056.88.804-.254 1.164-3.25 14.898c-.072.33.06.636.27.794.191.145.42.15.61.032l.005-.003 12.576-7.823 1.091-.68 1.092.68 12.58 7.822.003.002a.527.527 0 00.282.086.546.546 0 00.331-.118.786.786 0 00.267-.793l-3.249-14.898-.254-1.164.88-.803L114.3 36.223l.004-.004a.799.799 0 00.202-.819c-.098-.31-.331-.46-.534-.48l-.001-.001-14.584-1.378-1.243-.118-.474-1.155-5.766-14.036v-.002c-.124-.297-.363-.419-.56-.419-.197 0-.437.124-.558.416l-.001.002-5.765 14.04-.475 1.155-1.243.118-14.585 1.377h-.003c-.2.02-.433.169-.53.477zM38.518 44.235H90.58"/></svg><svg viewBox="0 0 107 98" id="ben-5" xmlns="http://www.w3.org/2000/svg"><path d="M75.914 0c-8.758 0-16.65 3.949-22.232 10.277C48.108 3.95 40.216 0 31.458 0 14.557 0 .86 14.71.86 32.862c0 25.418 52.829 64.75 52.829 64.75s52.828-39.324 52.828-64.75C106.518 14.71 92.815 0 75.914 0z"/><path d="M72.65 52.025c-.12 5.48-2.563 10.38-6.355 13.699 8.888.24 16.047 7.75 16.047 16.946v8.213h-55.45V82.67c0-9.196 7.16-16.706 16.047-16.945-3.791-3.32-6.234-8.22-6.355-13.698h-.68c-8.478-.36-8.483-12.787 0-13.149h.676v-2.937a10.605 10.605 0 01-4.307-8.571V15.312h4.307c0 2.44 1.93 4.426 4.305 4.426h21.54c5.64 0 10.23 4.718 10.23 10.518v8.62h.675c8.478.36 8.484 12.787 0 13.149h-.68z"/><path d="M66.296 65.724c3.79-3.318 6.234-8.219 6.355-13.699h.679c8.484-.362 8.478-12.79 0-13.148h-.675v-8.622c0-5.799-4.59-10.517-10.23-10.517h-21.54c-2.374 0-4.305-1.986-4.305-4.425h-4.307V27.37c0 3.532 1.702 6.663 4.307 8.571v2.937h-.675c-8.484.362-8.479 12.79 0 13.148h.679c.12 5.48 2.564 10.38 6.355 13.7-8.887.238-16.046 7.748-16.046 16.944v8.213h55.449V82.67c0-9.196-7.159-16.706-16.046-16.946zm-16.703 4.422h10.049v3.004c0 2.432-1.925 4.413-4.293 4.413h-1.465c-2.366 0-4.292-1.98-4.292-4.413v-3.004zM73.33 43.305c2.77.118 2.767 4.175 0 4.292h-.675v-4.292h.675zM36.58 22.979a8.374 8.374 0 004.303 1.187h21.54c3.267 0 5.924 2.732 5.924 6.09v3.202H42.503c-3.266 0-5.923-2.732-5.923-6.09v-4.39zM33.818 45.45c0-1.184.936-2.146 2.087-2.146h.675v4.292h-.675c-1.15 0-2.087-.962-2.087-2.146zm7.068 6.15V37.757a10.07 10.07 0 001.617.13h25.844v13.714c-.755 18.734-26.71 18.719-27.46 0zm37.15 34.855H31.198V82.67c0-6.907 5.464-12.524 12.18-12.524h1.907v3.004c0 4.875 3.858 8.84 8.598 8.84h1.465c4.742 0 8.598-3.965 8.598-8.84v-3.004h1.906c6.717 0 12.18 5.617 12.18 12.524l.002 3.786z"/><path d="M60.025 42.64h4.307v4.427h-4.307V42.64zm-15.121 0h4.307v4.427h-4.307V42.64zm9.714 18.498c3.68 0 6.675-3.078 6.675-6.86h-4.307c-.13 3.229-4.608 3.227-4.737 0h-4.307c0 3.782 2.995 6.86 6.676 6.86z"/></svg><svg viewBox="0 0 104 98" id="ben-6" xmlns="http://www.w3.org/2000/svg"><path d="M.769 36.886c.632-2.063 2.363-3.528 4.413-3.722l27.844-2.669 11.01-27.21C44.846 1.292 46.696 0 48.75 0s3.902 1.292 4.716 3.289l11.01 27.204 27.846 2.671c2.047.2 3.774 1.66 4.41 3.722.637 2.06.05 4.325-1.499 5.75L74.19 62.125l6.204 28.867c.455 2.122-.327 4.315-1.994 5.588a4.938 4.938 0 01-3.004 1.033 4.892 4.892 0 01-2.627-.773L48.75 81.683 24.742 96.84c-1.758 1.116-3.972 1.014-5.635-.26-1.669-1.277-2.449-3.472-1.994-5.588l6.206-28.865L2.273 42.642C.725 41.212.134 38.952.77 36.886z"/><path d="M91.247 64.37a18.222 18.222 0 006.093 1.054h6.48v-4.43c-1.98 0-3.59-1.655-3.59-3.69V33.061c-.095-10.985-13.87-15.137-19.748-6.027H56.788c-4.314 0-7.822 3.609-7.822 8.043v5.829c0 4.53 3.068 8.338 7.18 9.34v8.07c0 5.65 2.47 10.718 6.356 14.123h-2.698c-7.36-.002-13.349 6.156-13.349 13.724v11.449h55.47v-11.45c0-7.567-5.988-13.725-13.35-13.725h-2.697a18.641 18.641 0 005.37-8.067z"/><path d="M79.599 49.354h4.308v4.427h-4.308v-4.427zm-15.126 0h4.308v4.427h-4.308v-4.427z"/><path d="M91.247 64.37a18.222 18.222 0 006.093 1.054h6.48v-4.43c-1.98 0-3.59-1.655-3.59-3.69V33.061c-.095-10.985-13.87-15.137-19.748-6.027H56.788c-4.314 0-7.822 3.609-7.822 8.043v5.829c0 4.53 3.068 8.338 7.18 9.34v8.07c0 5.65 2.47 10.718 6.356 14.123h-2.698c-7.36-.002-13.349 6.156-13.349 13.724v11.449h55.47v-11.45c0-7.567-5.988-13.725-13.35-13.725h-2.697a18.641 18.641 0 005.37-8.067zm4.674-31.308v24.242c0 1.323.31 2.575.859 3.68a13.754 13.754 0 01-4.621-.983c.049-.554.073-1.117.073-1.683v-23.24c0-3.745-2.502-6.9-5.877-7.792 4.206-2.478 9.61.784 9.566 5.776zm-42.647 7.845v-5.83c0-1.992 1.576-3.612 3.514-3.612h27.623c4.664.199 4.66 7.03 0 7.226H56.147v6.884c-1.697-.83-2.873-2.61-2.873-4.668zm28.336 35.96c-.607 2.42-2.196 4.478-4.444 5.633l-2.976 1.53-2.976-1.53a8.67 8.67 0 01-4.444-5.632h14.84zm16.007 9.297v7.02H50.763v-7.02c0-5.126 4.056-9.296 9.041-9.296h2.564c.67 4.12 3.196 7.68 6.92 9.594l4.902 2.52 4.902-2.52c3.726-1.915 6.25-5.475 6.92-9.594h2.564c4.985 0 9.04 4.171 9.04 9.296zM60.454 58.316V43.12h23.957c1.263 0 2.458-.31 3.514-.858v16.055c-.756 18.739-26.721 18.724-27.47-.002z"/><path d="M74.19 63.43c-1.306 0-2.37-1.092-2.37-2.437h-4.308c.367 9.108 12.99 9.102 13.355 0h-4.309c.002 1.345-1.062 2.437-2.368 2.437z"/></svg><svg viewBox="0 0 56.7 56.7" id="instagram" xmlns="http://www.w3.org/2000/svg"><path d="M28.2 16.7c-7 0-12.8 5.7-12.8 12.8s5.7 12.8 12.8 12.8S41 36.5 41 29.5s-5.8-12.8-12.8-12.8zm0 21c-4.5 0-8.2-3.7-8.2-8.2s3.7-8.2 8.2-8.2 8.2 3.7 8.2 8.2-3.7 8.2-8.2 8.2z"/><circle cx="41.5" cy="16.4" r="2.9"/><path d="M49 8.9c-2.6-2.7-6.3-4.1-10.5-4.1H17.9c-8.7 0-14.5 5.8-14.5 14.5v20.5c0 4.3 1.4 8 4.2 10.7 2.7 2.6 6.3 3.9 10.4 3.9h20.4c4.3 0 7.9-1.4 10.5-3.9 2.7-2.6 4.1-6.3 4.1-10.6V19.3c0-4.2-1.4-7.8-4-10.4zm-.4 31c0 3.1-1.1 5.6-2.9 7.3s-4.3 2.6-7.3 2.6H18c-3 0-5.5-.9-7.3-2.6C8.9 45.4 8 42.9 8 39.8V19.3c0-3 .9-5.5 2.7-7.3 1.7-1.7 4.3-2.6 7.3-2.6h20.6c3 0 5.5.9 7.3 2.7 1.7 1.8 2.7 4.3 2.7 7.2v20.6z"/></svg><svg viewBox="0 0 110 110" id="sol-1" xmlns="http://www.w3.org/2000/svg"><path fill-rule="evenodd" clip-rule="evenodd" d="M47.066 27.781A16.506 16.506 0 0157.69 53.234l42.27 32.81a6.876 6.876 0 018.71 10.167 6.875 6.875 0 01-12.32-5.235L53.357 57.603a16.5 16.5 0 11-12.4-29.822L40.952 0h6.111v27.781h.003zM49.507 44a5.5 5.5 0 11-11 0 5.5 5.5 0 0111 0z"/><path d="M66.08 43.951a22.003 22.003 0 00-12.904-20.038V.323c13.105 1.153 19.913 5.28 26.009 10.93.305.288.61.566.904.835v.003c2.597 2.383 4.663 4.28 5.73 7.122l12.937 34.442a6.109 6.109 0 01-5.724 8.253H88.05v7.147L64.903 51.08a21.972 21.972 0 001.18-7.126l-.004-.003zM34.842 23.974V.736C7.373 4.87 0 25.364 0 36.59c0 17.621 11.254 31.29 16.53 36.768V110h52.287V90.102h13.118c.922 0 1.802-.208 2.585-.574L52.177 64.41a22 22 0 01-17.334-40.437z"/></svg><svg viewBox="0 0 111 110" id="sol-2" xmlns="http://www.w3.org/2000/svg"><path fill-rule="evenodd" clip-rule="evenodd" d="M.71 18.333A18.333 18.333 0 0119.043 0h73.334a18.333 18.333 0 0118.333 18.333v73.334A18.333 18.333 0 0192.377 110H19.043A18.334 18.334 0 01.71 91.667V18.333zm61.111 12.223a6.112 6.112 0 00-12.222 0v48.888a6.111 6.111 0 1012.222 0V30.556zM37.377 48.889a6.11 6.11 0 10-12.223 0v30.555a6.112 6.112 0 0012.223 0V48.89zm48.889 18.333a6.111 6.111 0 10-12.223 0v12.222a6.111 6.111 0 1012.222 0V67.222z"/></svg><svg viewBox="0 0 114 110" id="sol-3" xmlns="http://www.w3.org/2000/svg"><path d="M20.424 0a17.272 17.272 0 00-10.59 3.629A17.192 17.192 0 003.71 12.98a11.058 11.058 0 0110.117 1.518 11.007 11.007 0 013.386 4.024 10.974 10.974 0 01-.258 10.2 11.012 11.012 0 01-3.585 3.849 11.049 11.049 0 01-10.18 1.007v48.234c0 4.559 1.815 8.93 5.047 12.154A17.258 17.258 0 0020.424 99h32.522a35.516 35.516 0 01-5.637-19.25 35.487 35.487 0 014.798-17.875H34.211c-.914 0-1.79-.362-2.437-1.007a3.433 3.433 0 010-4.861A3.452 3.452 0 0134.211 55h23.08a35.739 35.739 0 0111.802-8.144A35.82 35.82 0 0183.156 44a35.738 35.738 0 0119.302 5.621V17.187c0-4.558-1.815-8.93-5.047-12.153A17.258 17.258 0 0085.224 0h-64.8zm10.34 39.188a3.443 3.443 0 013.447-3.438h37.226a3.454 3.454 0 013.184 2.122 3.43 3.43 0 01-1.865 4.491 3.454 3.454 0 01-1.319.262H34.211a3.443 3.443 0 01-3.446-3.438zM7.327 16.5a6.9 6.9 0 00-4.878 2.01 6.864 6.864 0 00-2.015 4.865 6.848 6.848 0 002.015 4.865 6.884 6.884 0 004.878 2.01 6.903 6.903 0 004.875-2.014 6.866 6.866 0 000-9.722A6.903 6.903 0 007.326 16.5zm106.162 63.25c0 16.706-13.58 30.25-30.332 30.25-16.751 0-30.332-13.544-30.332-30.25S66.404 49.5 83.156 49.5s30.332 13.544 30.332 30.25zM79.591 64.056a2.761 2.761 0 00-3.9 0l-13.787 13.75a2.746 2.746 0 000 3.888l13.788 13.75a2.761 2.761 0 003.865-.033 2.746 2.746 0 00.034-3.855L70.51 82.5h31.947a2.76 2.76 0 001.95-.805 2.747 2.747 0 00-1.95-4.695H70.51l9.08-9.056a2.746 2.746 0 000-3.888z"/></svg><svg data-name="Layer 1" viewBox="0 0 512 512" id="telegram" xmlns="http://www.w3.org/2000/svg"><path d="M256 0C114.615 0 0 114.615 0 256s114.615 256 256 256 256-114.615 256-256S397.385 0 256 0zm133.059 161.936L343.591 379a16.007 16.007 0 01-25.177 9.593l-66.136-48.861-40.068 37.8a5.429 5.429 0 01-7.74-.294l-.861-.946 6.962-67.375 125.484-114.651a3.358 3.358 0 00-4.061-5.317l-160.479 101.57-69.115-23.212a9.393 9.393 0 01-.32-17.694L372.5 147.744a12.441 12.441 0 0116.559 14.192z"/></svg><svg viewBox="0 0 85 25" id="title-bg" xmlns="http://www.w3.org/2000/svg"><path d="M27.5 3h44M7 22.5h19M3 13.5h79"/></svg><svg viewBox="0 0 387 385" id="why-blockquote-bg" xmlns="http://www.w3.org/2000/svg"><path d="M245.13 4.828c50.287 12.554 92.712 46.46 118.179 91.51 25.148 44.486 29.712 97.178 16.363 146.485-13.282 49.057-43.775 92.102-87.849 117.564-44.006 25.422-96.743 31.045-145.709 17.36-48.283-13.494-87.45-46.91-113.336-89.757C6.43 244.374-8.085 193.009 4.73 143.713 17.601 94.198 55.34 56.159 99.705 30.527 143.994 4.94 195.483-7.567 245.13 4.827z"/></svg></svg>